<svg width="760" height="460" viewBox="0 0 760 460" fill="none" xmlns="http://www.w3.org/2000/svg">
  <rect width="760" height="460" rx="28" fill="url(#bg)"/>
  <rect x="44" y="56" width="300" height="348" rx="20" fill="white" fill-opacity="0.96"/>
  <rect x="66" y="90" width="140" height="10" rx="5" fill="#6366F1"/>
  <rect x="66" y="112" width="240" height="8" rx="4" fill="#CBD5E1"/>
  <rect x="66" y="136" width="230" height="8" rx="4" fill="#E2E8F0"/>
  <rect x="66" y="176" width="252" height="160" rx="14" fill="#EEF2FF"/>
  <path d="M86 304L126 266L166 286L212 238L284 292" stroke="#6366F1" stroke-width="4" stroke-linecap="round" stroke-linejoin="round"/>
  <rect x="374" y="56" width="342" height="162" rx="20" fill="#0F172A"/>
  <rect x="392" y="78" width="78" height="8" rx="4" fill="#8B5CF6"/>
  <rect x="392" y="98" width="128" height="8" rx="4" fill="#475569"/>
  <rect x="392" y="124" width="94" height="74" rx="10" fill="#1E293B"/>
  <rect x="496" y="124" width="94" height="74" rx="10" fill="#1E293B"/>
  <rect x="600" y="124" width="94" height="74" rx="10" fill="#1E293B"/>
  <rect x="374" y="242" width="342" height="162" rx="20" fill="white" fill-opacity="0.92"/>
  <rect x="396" y="268" width="126" height="10" rx="5" fill="#6366F1"/>
  <rect x="396" y="292" width="170" height="8" rx="4" fill="#CBD5E1"/>
  <rect x="396" y="314" width="292" height="12" rx="6" fill="#EEF2FF"/>
  <rect x="396" y="336" width="260" height="12" rx="6" fill="#EEF2FF"/>
  <circle cx="668" cy="292" r="26" fill="#06B6D4" fill-opacity="0.24"/>
  <defs>
    <linearGradient id="bg" x1="0" y1="0" x2="760" y2="460" gradientUnits="userSpaceOnUse">
      <stop stop-color="#E0E7FF"/>
      <stop offset="1" stop-color="#CFFAFE"/>
    </linearGradient>
  </defs>
</svg>
