<svg width="760" height="460" viewBox="0 0 760 460" fill="none" xmlns="http://www.w3.org/2000/svg">
  <rect width="760" height="460" rx="28" fill="url(#bg)"/>
  <rect x="38" y="42" width="684" height="376" rx="22" fill="#0B1224"/>
  <rect x="62" y="74" width="154" height="316" rx="14" fill="#111B34"/>
  <rect x="82" y="98" width="114" height="24" rx="8" fill="#6366F1"/>
  <rect x="82" y="132" width="94" height="14" rx="7" fill="#334155"/>
  <rect x="82" y="156" width="94" height="14" rx="7" fill="#334155"/>
  <rect x="82" y="180" width="94" height="14" rx="7" fill="#334155"/>
  <rect x="82" y="204" width="94" height="14" rx="7" fill="#334155"/>
  <rect x="82" y="228" width="94" height="14" rx="7" fill="#334155"/>
  <rect x="238" y="74" width="460" height="92" rx="14" fill="#111B34"/>
  <rect x="256" y="96" width="98" height="52" rx="10" fill="#1E293B"/>
  <rect x="366" y="96" width="98" height="52" rx="10" fill="#1E293B"/>
  <rect x="476" y="96" width="98" height="52" rx="10" fill="#1E293B"/>
  <rect x="586" y="96" width="94" height="52" rx="10" fill="#1E293B"/>
  <rect x="238" y="180" width="460" height="210" rx="14" fill="#111B34"/>
  <path d="M276 336L332 290L380 304L430 250L484 272L542 220L620 268" stroke="#06B6D4" stroke-width="4" stroke-linecap="round" stroke-linejoin="round"/>
  <path d="M276 352L332 322L380 328L430 300L484 318L542 286L620 324" stroke="#8B5CF6" stroke-width="4" stroke-linecap="round" stroke-linejoin="round"/>
  <defs>
    <linearGradient id="bg" x1="0" y1="0" x2="760" y2="460" gradientUnits="userSpaceOnUse">
      <stop stop-color="#1E1B4B"/>
      <stop offset="1" stop-color="#0F172A"/>
    </linearGradient>
  </defs>
</svg>
